<svg width="75" height="30" viewBox="0 0 75 30" fill="none" xmlns="http://www.w3.org/2000/svg">
<rect y="2" width="75" height="26" rx="4" fill="#FCFCFC"/>
<path d="M35.7188 6.90625H38.5312M34.7812 4.09375H35.7188M28.2188 13.4688V14.4062M25.4062 13.4688V17.2188H27.2812M30.0938 17.2188H34.7812M34.7812 9.71875H35.7188M34.7812 19.0938V13.4688H31.0312M34.7812 26.5938H47.9062V24.7188M40.4062 26.5938V24.7188M25.4062 4.09375H31.9688V10.6562H25.4062V4.09375ZM41.3438 4.09375H47.9062V10.6562H41.3438V4.09375ZM25.4062 20.0312H31.9688V26.5938H25.4062V20.0312Z" stroke="#646464" stroke-width="1.875" stroke-miterlimit="10" stroke-linecap="round" stroke-linejoin="round"/>
<path d="M27.2812 5.96875H30.0938V8.78125H27.2812V5.96875ZM43.2188 5.96875H46.0312V8.78125H43.2188V5.96875ZM27.2812 21.9062H30.0938V24.7188H27.2812V21.9062Z" fill="#646464"/>
<path d="M38.5312 4.09375V9.71875V4.09375ZM47.9062 13.4688V19.0938V13.4688ZM45.0938 13.4688H44.1562H45.0938ZM45.0938 16.2812H44.1562H45.0938ZM37.5938 12.5312H38.5312H37.5938ZM39.4688 15.3438V19.0938V15.3438ZM37.5938 15.3438H41.3438H37.5938ZM34.7812 21.9062V23.7812V21.9062ZM34.7812 21.9062H39.4688H34.7812ZM37.5938 21.9062V23.7812V21.9062ZM42.2812 19.0938H45.0938H42.2812ZM43.2188 21.9062V23.7812V21.9062ZM46.0312 21.9062H47.9062H46.0312ZM34.7812 19.0938H36.6562H34.7812ZM31.0312 13.4688V14.4062V13.4688ZM41.3438 15.3438V13.4688V15.3438Z" fill="#646464"/>
<path d="M38.5312 4.09375V9.71875M47.9062 13.4688V19.0938M45.0938 13.4688H44.1562M45.0938 16.2812H44.1562M37.5938 12.5312H38.5312M39.4688 15.3438V19.0938M37.5938 15.3438H41.3438V13.4688M34.7812 23.7812V21.9062H39.4688M37.5938 21.9062V23.7812M42.2812 19.0938H45.0938M43.2188 21.9062V23.7812M46.0312 21.9062H47.9062M34.7812 19.0938H36.6562M31.0312 13.4688V14.4062" stroke="#646464" stroke-width="1.875" stroke-miterlimit="10" stroke-linecap="round" stroke-linejoin="round"/>
</svg>
